<svg xmlns="http://www.w3.org/2000/svg" version="1.1" xmlns:xlink="http://www.w3.org/1999/xlink" xmlns:svgjs="http://svgjs.dev/svgjs" width="1500" height="731" viewBox="0 0 1500 731"><g transform="matrix(1,0,0,1,-0.9090909090909918,-0.15069929080067368)"><svg viewBox="0 0 396 193" data-background-color="#ffffff" preserveAspectRatio="xMidYMid meet" height="731" width="1500" xmlns="http://www.w3.org/2000/svg" xmlns:xlink="http://www.w3.org/1999/xlink"><g id="tight-bounds" transform="matrix(1,0,0,1,0.2400000000000091,0.03978791125106795)"><svg viewBox="0 0 395.52 192.92042417749786" height="192.92042417749786" width="395.52"><g><svg viewBox="0 0 659.8328198488479 321.842707047619" height="192.92042417749786" width="395.52"><g transform="matrix(1,0,0,1,268.81254335115204,37.321353523809506)"><svg viewBox="0 0 391.0202764976958 247.2" height="247.2" width="391.0202764976958"><g id="textblocktransform"><svg viewBox="0 0 391.0202764976958 247.2" height="247.2" width="391.0202764976958" id="textblock"><g><svg viewBox="0 0 391.0202764976958 247.2" height="247.2" width="391.0202764976958"><g transform="matrix(1,0,0,1,0,0)"><svg width="391.0202764976958" viewBox="68.69999999999999 -27.150000000000002 137.3 71.3" height="247.2" data-palette-color="#000000"><svg></svg><svg></svg><g class="wordmark-text-0" data-fill-palette-color="primary" id="text-0"><path transform="translate(65.85,0)" d="M14.5-27.1c0.767 0 1.45 0.117 2.05 0.35v0l-1 5.9c-0.667-0.167-1.283-0.25-1.85-0.25v0c-1.267 0-2.267 0.55-3 1.65-0.733 1.1-1.3 2.733-1.7 4.9v0 14.55h-6.15v-26.45h5.35l0.45 4.6c1.233-3.5 3.183-5.25 5.85-5.25zM38.25-13.85c0 0.3-0.05 1.15-0.15 2.55v0h-13.65c0.133 2.733 0.61 4.64 1.43 5.72 0.813 1.087 1.97 1.63 3.47 1.63v0c1.033 0 1.967-0.177 2.8-0.53 0.833-0.347 1.733-0.903 2.7-1.67v0l2.55 3.5c-2.333 2.267-5.133 3.4-8.4 3.4v0c-3.467 0-6.123-1.2-7.97-3.6-1.853-2.4-2.78-5.783-2.78-10.15v0c0-4.367 0.883-7.817 2.65-10.35 1.767-2.533 4.267-3.8 7.5-3.8v0c3.1 0 5.517 1.123 7.25 3.37 1.733 2.253 2.6 5.563 2.6 9.93zM32.25-15.3v-0.35c0-2.5-0.3-4.327-0.9-5.48-0.6-1.147-1.567-1.72-2.9-1.72v0c-1.233 0-2.173 0.557-2.82 1.67-0.653 1.12-1.047 3.08-1.18 5.88v0zM49.9-27.15c3.133 0 5.783 1.033 7.95 3.1v0l-2.35 3.35c-0.933-0.667-1.817-1.167-2.65-1.5-0.833-0.333-1.683-0.5-2.55-0.5v0c-0.967 0-1.723 0.257-2.27 0.77-0.553 0.52-0.83 1.23-0.83 2.13v0c0 0.9 0.31 1.623 0.93 2.17 0.613 0.553 1.853 1.197 3.72 1.93v0c2.3 0.9 4 1.967 5.1 3.2 1.1 1.233 1.65 2.883 1.65 4.95v0c0 2.567-0.9 4.59-2.7 6.07-1.8 1.487-4.083 2.23-6.85 2.23v0c-1.8 0-3.457-0.327-4.97-0.98-1.52-0.647-2.847-1.553-3.98-2.72v0l3-3.3c1.867 1.633 3.767 2.45 5.7 2.45v0c1.1 0 1.967-0.29 2.6-0.87 0.633-0.587 0.95-1.397 0.95-2.43v0c0-0.767-0.133-1.39-0.4-1.87-0.267-0.487-0.733-0.94-1.4-1.36-0.667-0.413-1.667-0.87-3-1.37v0c-2.3-0.9-3.94-1.95-4.92-3.15-0.987-1.2-1.48-2.733-1.48-4.6v0c0-2.233 0.793-4.077 2.38-5.53 1.58-1.447 3.703-2.17 6.37-2.17zM80.6-26.45v26.45h-5.35l-0.3-3.35c-0.833 1.367-1.767 2.39-2.8 3.07-1.033 0.687-2.233 1.03-3.6 1.03v0c-1.933 0-3.457-0.683-4.57-2.05-1.12-1.367-1.68-3.15-1.68-5.35v0-19.8h6.15v19.45c0 2.067 0.7 3.1 2.1 3.1v0c0.8 0 1.517-0.31 2.15-0.93 0.633-0.613 1.217-1.487 1.75-2.62v0-19zM109.95-27.15c1.767 0 3.183 0.683 4.25 2.05 1.067 1.367 1.6 3.2 1.6 5.5v0 19.6h-6.05v-18.95c0-1.267-0.167-2.177-0.5-2.73-0.333-0.547-0.817-0.82-1.45-0.82v0c-1.3 0-2.55 1.233-3.75 3.7v0 18.8h-6v-18.95c0-2.367-0.633-3.55-1.9-3.55v0c-1.367 0-2.633 1.233-3.8 3.7v0 18.8h-6.05v-26.45h5.35l0.4 3.4c1.733-2.733 3.817-4.1 6.25-4.1v0c1.233 0 2.3 0.383 3.2 1.15 0.9 0.767 1.583 1.85 2.05 3.25v0c1.767-2.933 3.9-4.4 6.4-4.4zM140.15-13.85c0 0.3-0.05 1.15-0.15 2.55v0h-13.65c0.133 2.733 0.61 4.64 1.43 5.72 0.813 1.087 1.97 1.63 3.47 1.63v0c1.033 0 1.967-0.177 2.8-0.53 0.833-0.347 1.733-0.903 2.7-1.67v0l2.55 3.5c-2.333 2.267-5.133 3.4-8.4 3.4v0c-3.467 0-6.123-1.2-7.97-3.6-1.853-2.4-2.78-5.783-2.78-10.15v0c0-4.367 0.883-7.817 2.65-10.35 1.767-2.533 4.267-3.8 7.5-3.8v0c3.1 0 5.517 1.123 7.25 3.37 1.733 2.253 2.6 5.563 2.6 9.93zM134.15-15.3v-0.35c0-2.5-0.3-4.327-0.9-5.48-0.6-1.147-1.567-1.72-2.9-1.72v0c-1.233 0-2.173 0.557-2.82 1.67-0.653 1.12-1.047 3.08-1.18 5.88v0z" fill="#000000" fill-rule="nonzero" stroke="none" stroke-width="1" stroke-linecap="butt" stroke-linejoin="miter" stroke-miterlimit="10" stroke-dasharray="" stroke-dashoffset="0" font-family="none" font-weight="none" font-size="none" text-anchor="none" style="mix-blend-mode: normal" data-fill-palette-color="primary" opacity="1"></path><path transform="translate(67.25,43.4)" d="M15-27.15c2.567 0 4.533 1.167 5.9 3.5 1.367 2.333 2.05 5.8 2.05 10.4v0c0 4.333-0.767 7.75-2.3 10.25-1.533 2.5-3.633 3.75-6.3 3.75v0c-1.167 0-2.233-0.293-3.2-0.88-0.967-0.58-1.8-1.387-2.5-2.42v0l-0.35 2.55h-5.45v-37l6.15-0.65v14.05c0.7-1.133 1.56-2.01 2.58-2.63 1.013-0.613 2.153-0.92 3.42-0.92zM12.7-3.9c1.233 0 2.193-0.7 2.88-2.1 0.68-1.4 1.02-3.817 1.02-7.25v0c0-3.567-0.307-6.01-0.92-7.33-0.62-1.313-1.497-1.97-2.63-1.97v0c-0.767 0-1.5 0.317-2.2 0.95-0.7 0.633-1.317 1.467-1.85 2.5v0 12.4c0.433 0.833 0.977 1.51 1.63 2.03 0.647 0.513 1.337 0.77 2.07 0.77zM45.7-26.45v26.45h-5.35l-0.3-3.35c-0.833 1.367-1.767 2.39-2.8 3.07-1.033 0.687-2.233 1.03-3.6 1.03v0c-1.933 0-3.457-0.683-4.57-2.05-1.12-1.367-1.68-3.15-1.68-5.35v0-19.8h6.15v19.45c0 2.067 0.7 3.1 2.1 3.1v0c0.8 0 1.517-0.31 2.15-0.93 0.633-0.613 1.217-1.487 1.75-2.62v0-19zM51.4-26.45h6.15v26.45h-6.15zM54.45-39.65c1.1 0 1.993 0.35 2.68 1.05 0.68 0.7 1.02 1.6 1.02 2.7v0c0 1.067-0.34 1.95-1.02 2.65-0.687 0.7-1.58 1.05-2.68 1.05v0c-1.1 0-1.99-0.35-2.67-1.05-0.687-0.7-1.03-1.583-1.03-2.65v0c0-1.1 0.343-2 1.03-2.7 0.68-0.7 1.57-1.05 2.67-1.05zM68.85 0.75c-1.8 0-3.223-0.56-4.27-1.68-1.053-1.113-1.58-2.603-1.58-4.47v0-31.65l6.15-0.65v32.05c0 0.433 0.1 0.783 0.3 1.05 0.2 0.267 0.5 0.4 0.9 0.4v0c0.233 0 0.46-0.033 0.68-0.1 0.213-0.067 0.353-0.1 0.42-0.1v0l1.2 4.2c-1.133 0.633-2.4 0.95-3.8 0.95zM88.65-37.7l6.15 0.65v37.05h-5.45l-0.3-3.05c-1.567 2.533-3.583 3.8-6.05 3.8v0c-2.733 0-4.823-1.227-6.27-3.68-1.453-2.447-2.18-5.87-2.18-10.27v0c0-2.8 0.377-5.26 1.13-7.38 0.747-2.113 1.787-3.737 3.12-4.87 1.333-1.133 2.867-1.7 4.6-1.7v0c2.133 0 3.883 0.883 5.25 2.65v0zM84.75-3.9c0.767 0 1.46-0.267 2.08-0.8 0.613-0.533 1.22-1.3 1.82-2.3v0-12.85c-1.067-1.8-2.283-2.7-3.65-2.7v0c-2.7 0-4.05 3.1-4.05 9.3v0c0 3.367 0.333 5.767 1 7.2 0.667 1.433 1.6 2.15 2.8 2.15zM119.35-13.85c0 0.3-0.05 1.15-0.15 2.55v0h-13.65c0.133 2.733 0.61 4.64 1.43 5.72 0.813 1.087 1.97 1.63 3.47 1.63v0c1.033 0 1.967-0.177 2.8-0.53 0.833-0.347 1.733-0.903 2.7-1.67v0l2.55 3.5c-2.333 2.267-5.133 3.4-8.4 3.4v0c-3.467 0-6.123-1.2-7.97-3.6-1.853-2.4-2.78-5.783-2.78-10.15v0c0-4.367 0.883-7.817 2.65-10.35 1.767-2.533 4.267-3.8 7.5-3.8v0c3.1 0 5.517 1.123 7.25 3.37 1.733 2.253 2.6 5.563 2.6 9.93zM113.35-15.3v-0.35c0-2.5-0.3-4.327-0.9-5.48-0.6-1.147-1.567-1.72-2.9-1.72v0c-1.233 0-2.173 0.557-2.82 1.67-0.653 1.12-1.047 3.08-1.18 5.88v0zM135.3-27.1c0.767 0 1.45 0.117 2.05 0.35v0l-1 5.9c-0.667-0.167-1.283-0.25-1.85-0.25v0c-1.267 0-2.267 0.55-3 1.65-0.733 1.1-1.3 2.733-1.7 4.9v0 14.55h-6.15v-26.45h5.35l0.45 4.6c1.233-3.5 3.183-5.25 5.85-5.25z" fill="#89939e" fill-rule="nonzero" stroke="none" stroke-width="1" stroke-linecap="butt" stroke-linejoin="miter" stroke-miterlimit="10" stroke-dasharray="" stroke-dashoffset="0" font-family="none" font-weight="none" font-size="none" text-anchor="none" style="mix-blend-mode: normal" data-fill-palette-color="secondary" opacity="1"></path></g></svg></g></svg></g></svg></g></svg></g><g><svg viewBox="0 0 241.650530875576 321.842707047619" height="321.842707047619" width="241.650530875576"><g><svg xmlns="http://www.w3.org/2000/svg" xmlns:xlink="http://www.w3.org/1999/xlink" version="1.1" x="0" y="0" viewBox="16.3 5.1 67.5 89.9" style="enable-background:new 0 0 100 100;" xml:space="preserve" height="321.842707047619" width="241.650530875576" class="icon-icon-0" data-fill-palette-color="accent" id="icon-0"><g fill="#000000" data-fill-palette-color="accent"><path d="M83.7 26.3C83.7 25.5 83.4 24.7 82.8 24.1L66 6.1C65.4 5.4 64.5 5.1 63.6 5.1H21.6C18.7 5.1 16.3 7.5 16.3 10.4V89.7C16.3 92.6 18.7 95 21.6 95H78.5C81.4 95 83.8 92.6 83.8 89.7zM37.7 17.6C42.9 17.6 47.2 21.9 47.2 27.1S42.9 36.6 37.7 36.6 28.2 32.3 28.2 27.1 32.5 17.6 37.7 17.6M28.7 44.3H53.1C53.9 44.3 54.6 45 54.6 45.8S53.9 47.3 53.1 47.3H28.7C27.9 47.3 27.2 46.6 27.2 45.8S27.9 44.3 28.7 44.3M66.7 82.2H28.7C27.9 82.2 27.2 81.5 27.2 80.7S27.9 79.2 28.7 79.2H66.7C67.5 79.2 68.2 79.9 68.2 80.7S67.5 82.2 66.7 82.2M27.2 68.8C27.2 68 27.9 67.3 28.7 67.3H60.1C60.9 67.3 61.6 68 61.6 68.8S60.9 70.3 60.1 70.3H28.7C27.9 70.3 27.2 69.7 27.2 68.8M71.1 58.5H28.7C27.9 58.5 27.2 57.8 27.2 57S27.9 55.5 28.7 55.5H71.1C71.9 55.5 72.6 56.2 72.6 57S71.9 58.5 71.1 58.5M79.1 27.3H68.1C65.2 27.3 62.8 24.9 62.8 22V10.2C62.8 9.9 63.2 9.8 63.4 10L79.4 26.7C79.5 26.9 79.4 27.3 79.1 27.3" fill="#000000" data-fill-palette-color="accent"></path></g></svg></g></svg></g></svg></g><defs></defs></svg><rect width="395.52" height="192.92042417749786" fill="none" stroke="none" visibility="hidden"></rect></g></svg></g></svg>